# xmcd
#
# Track frame offsets:
#	150
#	30853
#	62716
#	85008
#	108898
#	128291
#	149660
#	174219
#	194419
#	220514
#	241060
#	264157
#	289976
#	310273
#
# Disc length: 4487 seconds
#
# Revision: 1
# Processed by: cddbd v1.5.1PL0 Copyright (c) Steve Scherf et al.
# Submitted via: CDex 1.50Beta5
#
DISCID=b211850e
DTITLE=Mr. Children - Complete Singles
DYEAR=1900
DGENRE=Pop
TTITLE0=光の射す方へ
TTITLE1=終わりなき旅
TTITLE2=ニシヘヒガシヘ
TTITLE3=Everything
TTITLE4=マシンガンをぶっ放せ
TTITLE5=花
TTITLE6=名もなき詩
TTITLE7=シーソーゲーム
TTITLE8=es
TTITLE9=everybody goes
TTITLE10=Tomorrow never knows
TTITLE11=innocent world
TTITLE12=CROSS ROAD
TTITLE13=君がいた夏
EXTD=
EXTT0=
EXTT1=
EXTT2=
EXTT3=
EXTT4=
EXTT5=
EXTT6=
EXTT7=
EXTT8=
EXTT9=
EXTT10=
EXTT11=
EXTT12=
EXTT13=
PLAYORDER=
